<svg
  width="192"
  height="192"
  viewBox="0 0 192 192"
  fill="none"
  xmlns="http://www.w3.org/2000/svg"
>
  <rect
    width="192"
    height="192"
    rx="96"
    fill="black"
  />
  <path
    d="M48.5125 123.168L61.8652 109.895C63.8818 107.891 67.1514 107.891 69.168 109.895L113.504 153.965C115.521 155.97 115.521 159.22 113.504 161.224L100.151 174.497C98.1348 176.501 94.8652 176.501 92.8486 174.497L48.5125 130.427C46.4958 128.422 46.4958 125.172 48.5125 123.168Z"
    fill="white"
  />
  <path
    d="M79.4958 30.7759L92.8486 17.5034C94.8652 15.4989 98.1348 15.4989 100.151 17.5034L144.488 61.5732C146.504 63.5777 146.504 66.8277 144.488 68.8322L131.135 82.1047C129.118 84.1093 125.849 84.1093 123.832 82.1047L79.4958 38.0349C77.4792 36.0304 77.4792 32.7804 79.4958 30.7759Z"
    fill="white"
  />
  <path
    d="M144.488 130.427L131.135 143.699C129.118 145.704 125.849 145.704 123.832 143.699L48.5125 68.8322C46.4958 66.8277 46.4958 63.5777 48.5125 61.5732L61.8652 48.3007C63.8818 46.2962 67.1514 46.2962 69.168 48.3007L144.488 123.168C146.504 125.172 146.504 128.422 144.488 130.427Z"
    fill="white"
  />
  <path
    d="M100.151 17.5034L113.504 30.7759C115.521 32.7804 115.521 36.0304 113.504 38.0349L69.168 82.1047C67.1514 84.1093 63.8818 84.1093 61.8652 82.1047L48.5125 68.8322C46.4958 66.8277 46.4958 63.5777 48.5125 61.5732L92.8486 17.5034C94.8652 15.4989 98.1348 15.4989 100.151 17.5034Z"
    fill="white"
  />
</svg>
